<svg width="27" height="26" viewBox="0 0 27 26" fill="none" xmlns="http://www.w3.org/2000/svg">
<path d="M26.0402 11.819C26.4967 12.0321 26.7787 12.488 26.7777 12.9947C26.7766 13.5013 26.4796 13.9623 26.0192 14.1836L2.65874 25.3821C2.00456 25.6946 1.23711 25.567 0.734911 25.0648C0.249798 24.5797 0.111574 23.8433 0.386057 23.2067L3.68718 15.5191C3.91597 14.9828 4.42245 14.613 4.99848 14.5631L12.1355 13.8828C12.5219 13.8449 12.8177 13.5218 12.8211 13.1357C12.8246 12.7497 12.531 12.4283 12.1487 12.4007L5.02954 11.84C4.45437 11.7934 3.95778 11.4359 3.735 10.9071L0.563143 3.24936C0.299915 2.61752 0.451229 1.87861 0.945027 1.38481C1.45621 0.873621 2.22606 0.732373 2.87479 1.03336L26.0402 11.819Z" fill="#6B9AC4"/>
</svg>
