<svg width="128" height="94" viewBox="0 0 128 94" fill="none" xmlns="http://www.w3.org/2000/svg">
<path d="M87.4218 71.8274C85.1849 75.3966 82.1948 78.4138 78.669 80.6596C75.1431 82.9054 71.1699 84.3234 67.0383 84.8106C62.9066 85.2979 58.7201 84.8421 54.7832 83.4763C50.8462 82.1106 47.2577 79.8693 44.2783 76.9152C41.2988 73.9611 39.0034 70.3685 37.5588 66.3985C36.1143 62.4284 35.5568 58.1807 35.9269 53.9639C36.297 49.7471 37.5855 45.6672 39.6986 42.0207C41.8117 38.3741 44.6965 35.2526 48.1432 32.8829L52.3062 39.1562C49.7751 40.8965 47.6566 43.1888 46.1048 45.8667C44.5529 48.5447 43.6067 51.5408 43.3349 54.6375C43.0631 57.7342 43.4725 60.8537 44.5334 63.7692C45.5943 66.6847 47.2799 69.323 49.4679 71.4924C51.6559 73.6618 54.2913 75.3077 57.1825 76.3107C60.0737 77.3137 63.1481 77.6484 66.1823 77.2906C69.2165 76.9328 72.1343 75.8914 74.7236 74.2421C77.3129 72.5929 79.5087 70.3772 81.1514 67.7561L87.4218 71.8274Z" fill="black"/>
<path d="M90.9365 63.5864C92.1391 58.8181 92.1077 53.8139 90.8453 49.0616C89.583 44.3093 87.1328 39.9708 83.7334 36.4689C80.334 32.967 76.1014 30.421 71.4479 29.0792C66.7945 27.7373 61.8789 27.6452 57.1801 28.8119L63.8158 34.8609L69.4207 36.3629C72.838 37.3483 75.9464 39.218 78.4428 41.7897C80.9392 44.3614 82.7386 47.5474 83.6656 51.0374L84.725 58L90.9365 63.5864Z" fill="black"/>
<path d="M30.4056 12.8681C22.9686 17.19 16.4557 22.9343 11.2387 29.7732C6.02166 36.612 2.20276 44.4115 0 52.7263L8.60293 55.0054C10.5064 47.8204 13.8064 41.0806 18.3146 35.171C22.8227 29.2613 28.4507 24.2975 34.8772 20.5629L30.4056 12.8681Z" fill="black"/>
<path d="M127.316 54.9968C125.261 46.2929 121.409 38.085 115.992 30.8707C110.575 23.6565 103.707 17.5861 95.8033 13.0277C87.8998 8.46931 79.1259 5.51777 70.0134 4.35204C60.9009 3.18631 46.6643 6.08461 37.8158 8.5L45.2859 14.8732C52.9322 12.786 60.935 12.2292 68.8094 13.2365C76.6837 14.2438 84.2655 16.7944 91.0951 20.7334C97.9247 24.6724 103.86 29.918 108.541 36.152C113.221 42.386 116.55 49.4787 118.326 57L127.316 54.9968Z" fill="black"/>
<path d="M17.4725 0L105.154 87.6812L99.4969 93.3381L11.8157 5.65685L17.4725 0Z" fill="black"/>
</svg>
