<svg width="128" height="81" viewBox="0 0 128 81" fill="none" xmlns="http://www.w3.org/2000/svg">
<path d="M91.9609 52.5C91.9609 68.2401 79.4249 81 63.9609 81C48.497 81 35.9609 68.2401 35.9609 52.5C35.9609 36.7599 48.497 24 63.9609 24C79.4249 24 91.9609 36.7599 91.9609 52.5ZM43.3985 52.5C43.3985 64.0591 52.6046 73.4296 63.9609 73.4296C75.3173 73.4296 84.5234 64.0591 84.5234 52.5C84.5234 40.9409 75.3173 31.5704 63.9609 31.5704C52.6046 31.5704 43.3985 40.9409 43.3985 52.5Z" fill="black"/>
<path d="M127.303 50.8579C124.02 36.5417 116.02 23.7445 104.589 14.5219C93.1571 5.2993 78.9575 0.186594 64.2707 0.00500913C49.5839 -0.176576 35.2623 4.5835 23.6062 13.5206C11.9502 22.4578 3.63633 35.0533 0 49.284L8.62265 51.4873C11.7649 39.1902 18.9492 28.3061 29.0214 20.5833C39.0937 12.8604 51.4694 8.74712 64.1607 8.90403C76.8519 9.06094 89.1222 13.479 99.0004 21.4485C108.879 29.418 115.792 40.4764 118.629 52.8474L127.303 50.8579Z" fill="black"/>
</svg>
