<svg width="29" height="29" viewBox="0 0 29 29" fill="none" xmlns="http://www.w3.org/2000/svg">
<mask id="mask0_134_3" style="mask-type:luminance" maskUnits="userSpaceOnUse" x="0" y="0" width="29" height="29">
<path d="M28.0114 11.8636H14.5V17.4659H22.2773C21.5523 21.025 18.5205 23.0682 14.5 23.0682C9.75455 23.0682 5.93182 19.2455 5.93182 14.5C5.93182 9.75455 9.75455 5.93182 14.5 5.93182C16.5432 5.93182 18.3886 6.65682 19.8386 7.84318L24.0568 3.625C21.4864 1.38409 18.1909 0 14.5 0C6.45909 0 0 6.45909 0 14.5C0 22.5409 6.45909 29 14.5 29C21.75 29 28.3409 23.7273 28.3409 14.5C28.3409 13.6432 28.2091 12.7205 28.0114 11.8636Z" fill="white"/>
</mask>
<g mask="url(#mask0_134_3)">
<path d="M-1.31812 23.0682V5.93182L9.88643 14.5L-1.31812 23.0682Z" fill="#FBBC05"/>
</g>
<mask id="mask1_134_3" style="mask-type:luminance" maskUnits="userSpaceOnUse" x="0" y="0" width="29" height="29">
<path d="M28.0114 11.8636H14.5V17.4659H22.2773C21.5523 21.025 18.5205 23.0682 14.5 23.0682C9.75455 23.0682 5.93182 19.2455 5.93182 14.5C5.93182 9.75455 9.75455 5.93182 14.5 5.93182C16.5432 5.93182 18.3886 6.65682 19.8386 7.84318L24.0568 3.625C21.4864 1.38409 18.1909 0 14.5 0C6.45909 0 0 6.45909 0 14.5C0 22.5409 6.45909 29 14.5 29C21.75 29 28.3409 23.7273 28.3409 14.5C28.3409 13.6432 28.2091 12.7205 28.0114 11.8636Z" fill="white"/>
</mask>
<g mask="url(#mask1_134_3)">
<path d="M-1.31812 5.93183L9.88643 14.5L14.5001 10.4796L30.3183 7.9091V-1.31818H-1.31812V5.93183Z" fill="#EA4335"/>
</g>
<mask id="mask2_134_3" style="mask-type:luminance" maskUnits="userSpaceOnUse" x="0" y="0" width="29" height="29">
<path d="M28.0114 11.8636H14.5V17.4659H22.2773C21.5523 21.025 18.5205 23.0682 14.5 23.0682C9.75455 23.0682 5.93182 19.2455 5.93182 14.5C5.93182 9.75455 9.75455 5.93182 14.5 5.93182C16.5432 5.93182 18.3886 6.65682 19.8386 7.84318L24.0568 3.625C21.4864 1.38409 18.1909 0 14.5 0C6.45909 0 0 6.45909 0 14.5C0 22.5409 6.45909 29 14.5 29C21.75 29 28.3409 23.7273 28.3409 14.5C28.3409 13.6432 28.2091 12.7205 28.0114 11.8636Z" fill="white"/>
</mask>
<g mask="url(#mask2_134_3)">
<path d="M-1.31812 23.0682L18.4546 7.9091L23.6614 8.56819L30.3183 -1.31818V30.3182H-1.31812V23.0682Z" fill="#34A853"/>
</g>
<mask id="mask3_134_3" style="mask-type:luminance" maskUnits="userSpaceOnUse" x="0" y="0" width="29" height="29">
<path d="M28.0114 11.8636H14.5V17.4659H22.2773C21.5523 21.025 18.5205 23.0682 14.5 23.0682C9.75455 23.0682 5.93182 19.2455 5.93182 14.5C5.93182 9.75455 9.75455 5.93182 14.5 5.93182C16.5432 5.93182 18.3886 6.65682 19.8386 7.84318L24.0568 3.625C21.4864 1.38409 18.1909 0 14.5 0C6.45909 0 0 6.45909 0 14.5C0 22.5409 6.45909 29 14.5 29C21.75 29 28.3409 23.7273 28.3409 14.5C28.3409 13.6432 28.2091 12.7205 28.0114 11.8636Z" fill="white"/>
</mask>
<g mask="url(#mask3_134_3)">
<path d="M30.3182 30.3182L9.88636 14.5L7.25 12.5227L30.3182 5.93182V30.3182Z" fill="#4285F4"/>
</g>
</svg>
