<svg width="512" height="375" viewBox="0 0 512 375" fill="none" xmlns="http://www.w3.org/2000/svg">
<path d="M220.963 207.88V55.623C204.683 -9.9422 136.732 0.985358 121.868 33.0394C82.2304 30.1254 66.6584 64.365 63.8271 81.8491C25.888 99.9159 28.6721 133.573 34.8065 148.143C5.078 188.21 48.3106 223.908 74.5001 220.994C88.0902 246.054 127.037 241.768 142.609 236.182C190.74 262.991 214.121 230.221 220.963 207.88Z" fill="#69D5CD"/>
<path d="M182.624 190.964C183.282 193.826 181.357 196.703 178.325 197.39C175.292 198.076 172.3 196.312 171.642 193.45C170.984 190.588 172.909 187.711 175.942 187.024C178.974 186.338 181.966 188.102 182.624 190.964Z" fill="white"/>
<path d="M98.0828 123.336C95.0781 123.152 92.7902 120.629 92.9725 117.702C93.1549 114.774 95.7385 112.551 98.7432 112.735C101.748 112.919 104.036 115.442 103.853 118.369C103.671 121.297 101.088 123.521 98.0828 123.336Z" fill="white"/>
<path d="M88.4372 196.281C89.0943 199.133 87.2889 201.975 84.4048 202.63C81.5208 203.284 78.6501 201.503 77.993 198.651C77.336 195.799 79.1413 192.957 82.0254 192.302C84.9095 191.648 87.7802 193.429 88.4372 196.281Z" fill="white"/>
<path d="M192.632 138.558C190.629 141.027 187.084 141.493 184.715 139.6C182.346 137.707 182.05 134.171 184.053 131.702C186.057 129.234 189.601 128.767 191.97 130.66C194.339 132.553 194.635 136.089 192.632 138.558Z" fill="white"/>
<path d="M142.387 121.38C143.443 124.373 142.043 127.583 139.26 128.55C136.478 129.516 133.367 127.873 132.311 124.879C131.255 121.885 132.655 118.675 135.437 117.709C138.22 116.743 141.331 118.386 142.387 121.38Z" fill="white"/>
<path d="M179.425 59.6645C178.909 62.9525 175.733 65.1918 172.331 64.666C168.929 64.1402 166.589 61.0484 167.105 57.7604C167.621 54.4723 170.798 52.233 174.199 52.7588C177.601 53.2846 179.941 56.3764 179.425 59.6645Z" fill="white"/>
<path d="M373.844 60.8469C377.445 63.6721 379.289 63.8689 382.141 60.8469C396.718 35.4015 406.898 24.1429 432.755 15.6117C439.738 14.9818 443.763 15.1111 451.009 15.6117C458.967 17.2387 462.397 18.6434 467.603 21.5861C484.48 30.8465 490.712 39.1569 499.133 56.5794C505.538 74.937 504.477 85.937 499.133 106.082C492.392 127.415 484.389 138.517 469.263 158.145C437.807 195.112 418.027 213.885 381.311 246.055H376.333C339.747 214.783 320.407 196.741 290.87 162.413C270.12 138.288 264.75 123.96 255.192 98.4006C251.204 81.124 251.906 72.0815 256.021 56.5794C264.416 38.2527 271.626 31.2216 286.722 21.5861C298.853 15.7131 306.058 15.2441 319.081 15.6117C343.769 20.6504 355.523 31.4471 373.844 60.8469Z" fill="#FEAA79"/>
<path d="M492.021 268.079C493.769 268.079 495.574 268.272 497.246 268.829C498.412 269.218 501.699 270.498 503.081 274.129C503.906 276.295 503.754 278.668 502.711 280.691C501.773 282.509 500.372 283.579 499.361 284.162C497.384 285.302 495.281 285.546 493.755 285.546H266.158L318.182 355.35L318.501 357.081C319.065 360.129 319.18 363.617 317.413 366.994C315.799 370.079 313.137 371.942 311.469 373.074L309.516 374.4H204.859L203.09 373.393C200.221 371.759 197.233 369.412 195.83 365.53C194.56 362.013 195.135 358.529 195.546 356.316L195.637 355.895C195.877 354.919 196.309 353.998 196.911 353.188L247.134 285.546H12.4027C10.4883 285.546 8.62199 285.371 6.95764 284.914C6.13596 284.688 5.10123 284.324 4.07294 283.695C3.17059 283.142 1.42826 281.87 0.524623 279.496C-0.58692 276.575 0.194874 273.706 1.68149 271.778C2.91097 270.184 4.43597 269.405 5.30155 269.04C7.13039 268.269 9.08072 268.079 10.6689 268.079H492.021ZM211.449 359.211H302.023L256.652 298.332L211.449 359.211ZM117.41 25.2697C127.864 8.54645 149.96 -1.3484 171.421 0.148921C195.832 1.85229 219.511 18.0374 228.393 53.8064L228.616 54.7008V209.009L228.285 210.089C224.563 222.243 216.167 237.993 201.23 246.96C189.577 253.956 174.979 256.221 157.557 250.919L157.298 251.527C156.001 250.981 154.535 250.243 152.972 249.373C149.379 248.042 145.673 246.395 141.854 244.412C132.94 247.038 119.922 248.948 107.03 247.635C93.8072 246.288 79.282 241.347 70.3402 228.738C63.4297 228.545 56.2642 226.51 49.681 223.284C41.4191 219.236 33.5343 213.061 27.5854 205.274C21.6163 197.46 17.4744 187.848 17.1348 177.077C16.8276 167.332 19.651 157.15 26.2671 147.047C23.5439 138.519 22.1607 126.671 25.3838 114.392C29.0274 100.512 38.4209 86.6501 57.0347 76.7541C59.2187 67.2507 64.2491 54.9898 73.2996 44.7792C83.0877 33.7365 97.5364 25.2016 117.41 25.2697ZM432.061 8.04884C439.601 7.36872 444.072 7.51952 451.54 8.03549L452.051 8.07109L452.553 8.17344C461.207 9.94277 465.403 11.6096 471.306 14.9401L472.96 15.8627C481.092 20.4804 487.192 25.1654 492.326 31.053C497.389 36.8597 501.234 43.5248 505.231 51.6497L506.033 53.2947L506.222 53.6848L506.365 54.0942C509.784 63.893 511.342 72.1333 511.19 80.7931C511.041 89.3055 509.239 97.8177 506.534 108.016L506.489 108.186L506.435 108.354C499.276 131.009 490.582 142.982 475.342 162.759L475.23 162.904L475.11 163.045C443.34 200.381 423.271 219.42 386.375 251.748L384.207 253.65H373.491L371.339 251.809C334.571 220.381 314.923 202.062 285.051 167.344C263.422 142.198 257.676 126.87 248.018 101.043L247.843 100.579L247.732 100.096C245.651 91.0798 244.701 83.8176 244.918 76.5984C245.135 69.4002 246.504 62.6227 248.622 54.6444L248.786 54.023L249.055 53.4371C253.441 43.8628 257.723 36.7812 263.157 30.7578C268.572 24.7549 274.817 20.1543 282.582 15.1982L282.961 14.9565L283.366 14.7607C289.938 11.5794 295.488 9.71484 301.328 8.76378C306.334 7.94858 311.312 7.84948 316.877 7.96133L319.298 8.02066L319.968 8.03994L320.622 8.17344C333.911 10.8856 344.29 15.2916 353.802 23.3043C362.244 30.4156 369.656 40.0911 377.893 52.9624C384.341 42.061 390.44 33.3576 397.987 26.3436C406.608 18.3326 416.684 12.9107 430.341 8.40483L431.181 8.12746L432.061 8.04884ZM170.348 15.2991C151.946 14.0152 134.652 23.6396 128.82 36.2148L128.14 37.6773L129.136 38.1371C120.819 55.8661 129.316 70.491 139.873 75.658C145.136 78.2337 150.446 78.2836 154.705 75.9472C157.326 74.5089 160.145 71.8306 162.443 67.2019C160.107 64.3512 158.918 60.5821 159.544 56.592L159.673 55.8859C161.143 48.9084 167.772 44.4428 174.685 45.1648L175.377 45.2553L176.063 45.3784C183.097 46.8236 188.144 53.4529 186.986 60.8327C186.123 66.3357 182.099 70.398 177.147 71.8C173.651 79.8319 168.528 85.7174 162.109 89.2389C152.649 94.4289 141.954 93.6118 133.104 89.2804C117.536 81.6609 106.244 62.6297 111.98 40.7284C99.8289 42.0028 91.0914 47.702 84.7905 54.8106C79.3348 60.9657 75.6898 68.231 73.5193 74.6509C74.1077 74.7339 74.6889 74.8376 75.2591 74.9564C80.043 75.9534 85.3639 78.3346 90.1877 81.9248C97.4839 87.3553 104.095 95.9468 105.864 107.43C109.478 109.896 111.786 114.101 111.491 118.838C111.04 126.082 104.7 131.351 97.6102 130.916C90.5203 130.481 84.8833 124.477 85.3346 117.233L85.3944 116.559C85.806 112.964 87.6793 109.902 90.3522 107.855C88.8929 101.737 85.1879 97.1894 81.0046 94.0758C77.7934 91.6859 74.5045 90.3185 72.1143 89.8203C70.9002 89.5673 70.2369 89.6052 70.0846 89.6275C69.821 89.6661 71.0919 89.5668 72.204 88.0953L70.7183 86.9902L67.1371 88.696C50.1359 96.7922 42.8895 107.955 40.1944 118.222C37.5629 128.247 39.1311 138.019 41.4394 144.141C44.2108 147.434 47.5645 149.617 52.0635 150.112C57.4388 150.704 65.9217 149.059 78.8089 140.921C82.8381 138.376 87.2617 138.45 90.9605 139.912C94.3609 141.256 97.1524 143.725 99.3097 146.259C103.669 151.38 107.109 158.735 108.762 166.27C110.404 173.755 110.527 182.578 106.804 190.182C104.402 195.086 100.619 199.026 95.5177 201.646C94.0987 205.726 90.6483 209.003 86.1103 210.032C79.1316 211.616 72.1379 207.309 70.533 200.344C68.9281 193.378 73.3412 186.482 80.32 184.898L80.9732 184.768C84.4121 184.167 87.8121 184.976 90.5285 186.803C91.6878 185.818 92.475 184.693 93.0381 183.543C94.7194 180.109 95.0342 175.098 93.8063 169.5C92.5893 163.952 90.0988 158.974 87.6184 156.06C86.9156 155.235 86.3377 154.723 85.9295 154.417C72.0433 162.984 60.3577 166.306 50.3775 165.208C44.7945 164.593 40.1787 162.649 36.3785 160.018C33.3592 166.007 32.2743 171.579 32.4326 176.602C32.6566 183.701 35.3856 190.344 39.7818 196.098C44.1986 201.88 50.1754 206.587 56.4563 209.665C62.8057 212.776 68.9362 213.971 73.6478 213.447L78.788 212.874L81.2392 217.395C86.3161 226.757 96.4141 231.286 108.593 232.526C116.142 233.295 123.82 232.701 130.182 231.558C129.578 230.783 128.887 229.8 128.321 228.661C117.604 214.146 122.876 196.222 133.687 186.024C139.335 180.696 146.888 176.96 155.398 176.482C161.089 176.163 166.925 177.318 172.6 180.106C173.133 179.912 173.68 179.746 174.24 179.619L174.878 179.492C181.278 178.366 188.011 181.961 189.911 188.6L190.085 189.275L190.222 189.958C191.451 196.984 186.611 203.303 180.027 204.793C173.23 206.332 165.858 202.435 164.181 195.139C164.005 194.375 163.906 193.618 163.87 192.872C161.142 191.841 158.58 191.517 156.262 191.647C151.802 191.897 147.579 193.874 144.23 197.033C137.464 203.415 135.735 212.69 140.514 219.47L140.997 220.119L141.767 221.098L142.075 221.97C142.119 222.035 142.192 222.143 142.308 222.292C142.666 222.748 143.229 223.371 144.025 224.149C145.616 225.701 147.783 227.517 150.23 229.364C153.453 231.796 156.787 234 159.482 235.571C174.663 240.902 185.555 238.62 193.309 233.965C203.449 227.877 210.06 216.654 213.31 206.716V56.5727C205.772 27.4278 187.528 16.4979 170.348 15.2991ZM449.957 23.153C443.594 22.7203 440.061 22.6233 434.329 23.1026C422.603 27.0555 414.874 31.4588 408.449 37.4296C401.728 43.6744 396.002 52.0176 388.794 64.6002L388.345 65.3819L387.727 66.039C385.912 67.9613 382.763 70.7227 378.123 70.6327C374.061 70.5537 370.906 68.2223 369.099 66.8043L368.042 65.9767L367.335 64.842C358.259 50.2773 351.254 41.0815 343.897 34.8843C336.913 29.0008 329.23 25.5126 318.173 23.1857C312.086 23.0268 307.826 23.0976 303.806 23.7523C299.852 24.3963 295.834 25.6583 290.474 28.2214C283.357 32.7853 278.55 36.4653 274.56 40.8886C270.608 45.2694 267.159 50.7167 263.262 59.1314C261.37 66.341 260.379 71.6851 260.217 77.0508C260.055 82.442 260.72 88.2191 262.544 96.2325C271.888 121.217 276.944 134.524 296.69 157.481L299.398 160.617C326.425 191.77 345.138 209.292 378.79 238.126C413.658 207.505 432.956 189.03 463.3 153.38C478.193 134.049 485.484 123.821 491.779 103.968C494.387 94.1158 495.772 87.1005 495.888 80.5276C495.999 74.1616 494.918 67.822 492.034 59.4592C487.995 51.1391 484.727 45.549 480.753 40.9909C476.789 36.445 471.808 32.5709 463.9 28.2318L463.859 28.2095L463.815 28.1858C459.455 25.7209 456.809 24.5809 449.957 23.153ZM82.6786 195.231C81.5549 195.497 80.7898 196.571 80.9358 197.737L80.9777 197.973C81.223 199.038 82.1525 199.733 83.1643 199.759L82.6786 195.231ZM175.213 192.829C175.634 194.251 176.939 194.587 177.643 194.428C178.33 194.273 179.33 193.446 179.154 192.048L179.104 191.761L179.102 191.76C178.868 190.743 178.205 190.231 177.567 190.041L175.213 192.829ZM133.594 110.324C140.433 108.35 146.987 112.398 149.384 118.277L149.609 118.872L149.807 119.475C150.839 122.923 150.455 126.737 148.729 129.884C151.325 134.223 154.609 137.948 158.269 139.856C160.967 141.261 163.986 141.764 167.728 140.624C169.831 139.983 172.306 138.769 175.14 136.702C174.812 133.269 175.833 129.725 178.093 126.939L178.519 126.439C182.894 121.556 190.512 120.236 196.207 124.318L196.77 124.746L197.31 125.201C202.717 130.007 202.884 138.033 198.592 143.322C195.408 147.246 190.216 149.11 185.345 148.088C180.96 151.464 176.591 153.812 172.221 155.144C164.411 157.524 157.23 156.469 151.153 153.303C143.822 149.482 138.411 142.788 134.685 136.097C130.25 135.043 126.589 131.643 125.088 127.387C122.833 120.991 125.6 113.079 132.91 110.54L133.594 110.324ZM190.312 134.861C190.226 134.526 190.044 134.183 189.722 133.868L189.515 133.685L189.514 133.684C189.144 133.389 188.771 133.237 188.42 133.184L190.312 134.861ZM138.734 121.496C138.334 121.284 137.716 121.143 137.03 121.297L136.733 121.381C135.931 121.66 135.446 122.237 135.24 122.709C135.075 123.087 135.06 123.44 135.119 123.719L139.503 122.294C139.383 122.015 139.141 121.711 138.734 121.496ZM96.3891 118.952C96.7251 119.754 97.4916 120.267 98.2709 120.315C98.9301 120.355 99.6207 120.063 100.081 119.515L96.3891 118.952ZM173.449 57.5294L173.471 57.5341L174.376 57.7C174.168 57.4313 173.886 57.2553 173.62 57.1853L173.509 57.1616L173.508 57.1601L173.449 57.5294ZM173.508 57.1601C173.232 57.1178 172.887 57.1834 172.582 57.3707L173.449 57.5294L173.508 57.1601Z" fill="white"/>
</svg>
