<svg width="71" height="52" viewBox="0 0 71 52" fill="none" xmlns="http://www.w3.org/2000/svg">
<path d="M30.6893 28.8722V7.72542C28.4282 -1.38086 18.9906 0.136855 16.9261 4.58881C11.4209 4.18409 9.25811 8.93959 8.86487 11.3679C3.59555 13.8772 3.98223 18.5518 4.83423 20.5754C0.705278 26.1403 6.7098 31.0983 10.3472 30.6936C12.2347 34.1742 17.644 33.5788 19.8068 32.8031C26.4917 36.5266 29.739 31.9751 30.6893 28.8722Z" fill="#69D5CD"/>
<path d="M25.3644 26.5228C25.4558 26.9203 25.1885 27.3199 24.7673 27.4153C24.3461 27.5106 23.9306 27.2656 23.8392 26.8681C23.7478 26.4705 24.0152 26.0709 24.4363 25.9756C24.8575 25.8802 25.273 26.1252 25.3644 26.5228Z" fill="#3C5465"/>
<path d="M13.6226 17.13C13.2053 17.1044 12.8875 16.7541 12.9129 16.3475C12.9382 15.9409 13.297 15.632 13.7143 15.6576C14.1316 15.6832 14.4494 16.0336 14.4241 16.4402C14.3988 16.8468 14.0399 17.1556 13.6226 17.13Z" fill="#3C5465"/>
<path d="M12.2829 27.2612C12.3742 27.6573 12.1235 28.0521 11.7229 28.143C11.3223 28.2339 10.9236 27.9865 10.8324 27.5904C10.7411 27.1943 10.9919 26.7995 11.3924 26.7086C11.793 26.6178 12.1917 26.8652 12.2829 27.2612Z" fill="#3C5465"/>
<path d="M26.7544 19.2442C26.4762 19.5871 25.9839 19.6519 25.6549 19.3889C25.3259 19.126 25.2847 18.6349 25.563 18.292C25.8412 17.9491 26.3335 17.8843 26.6625 18.1473C26.9915 18.4102 27.0327 18.9013 26.7544 19.2442Z" fill="#3C5465"/>
<path d="M19.776 16.8583C19.9226 17.2741 19.7282 17.7199 19.3417 17.8541C18.9553 17.9883 18.5231 17.7601 18.3765 17.3443C18.2299 16.9285 18.4243 16.4827 18.8107 16.3485C19.1972 16.2142 19.6293 16.4425 19.776 16.8583Z" fill="#3C5465"/>
<path d="M24.9201 8.28673C24.8484 8.74341 24.4073 9.05442 23.9348 8.98139C23.4623 8.90836 23.1374 8.47895 23.2091 8.02227C23.2808 7.5656 23.7219 7.25459 24.1944 7.32762C24.6669 7.40065 24.9918 7.83006 24.9201 8.28673Z" fill="#3C5465"/>
<path d="M51.9227 8.45096C52.423 8.84334 52.679 8.87068 53.0751 8.45096C55.0998 4.91688 56.5135 3.35318 60.1048 2.16829C61.0747 2.08081 61.6338 2.09876 62.6401 2.16829C63.7454 2.39427 64.2219 2.58936 64.9449 2.99808C67.2889 4.28424 68.1544 5.43845 69.3241 7.85825C70.2136 10.4079 70.0663 11.9357 69.3241 14.7336C68.3878 17.6965 67.2762 19.2384 65.1754 21.9646C60.8065 27.0989 58.0593 29.7062 52.9599 34.1743H52.2684C47.1871 29.831 44.501 27.3252 40.3986 22.5573C37.5167 19.2067 36.7708 17.2167 35.4433 13.6668C34.8894 11.2672 34.9869 10.0113 35.5585 7.85825C36.7245 5.31288 37.7259 4.33634 39.8224 2.99808C41.5074 2.18237 42.508 2.11723 44.3168 2.16829C47.7457 2.86811 49.3782 4.36766 51.9227 8.45096Z" fill="#FEAA79"/>
<path d="M68.3362 37.2332C68.5791 37.2332 68.8297 37.2601 69.062 37.3374C69.2239 37.3913 69.6805 37.5691 69.8724 38.0735C69.9869 38.3744 69.9658 38.704 69.8209 38.9849C69.6907 39.2373 69.4961 39.386 69.3557 39.4669C69.0811 39.6253 68.789 39.6592 68.577 39.6592H36.9665L44.1919 49.3542L44.2363 49.5946C44.3145 50.0178 44.3306 50.5023 44.0852 50.9714C43.861 51.3998 43.4912 51.6586 43.2596 51.8158L42.9883 52H28.4527L28.2069 51.8601C27.8085 51.6333 27.3934 51.3072 27.1986 50.7681C27.0222 50.2795 27.1021 49.7958 27.1592 49.4883L27.1719 49.4298C27.2051 49.2943 27.2651 49.1665 27.3487 49.0538L34.3242 39.6592H1.72259C1.45671 39.6591 1.1975 39.6349 0.966338 39.5714C0.852216 39.54 0.708504 39.4895 0.565687 39.4021C0.440359 39.3253 0.198369 39.1486 0.0728643 38.8188C-0.0815166 38.4132 0.0270658 38.0147 0.23354 37.747C0.404302 37.5256 0.616107 37.4174 0.736327 37.3667C0.990332 37.2596 1.26121 37.2332 1.48179 37.2332H68.3362ZM29.368 49.8905H41.9476L35.6462 41.435L29.368 49.8905ZM16.3069 3.50968C17.759 1.18701 20.8278 -0.187278 23.8085 0.0206835C27.1989 0.257262 30.4877 2.50519 31.7212 7.47311L31.7522 7.59733V29.029L31.7063 29.179C31.1893 30.867 30.0231 33.0546 27.9487 34.3C26.3301 35.2716 24.3027 35.5863 21.8829 34.8498L21.8469 34.9343C21.6668 34.8585 21.4631 34.756 21.2462 34.6352C20.7471 34.4503 20.2323 34.2215 19.7019 33.9461C18.4639 34.3109 16.6559 34.5761 14.8652 34.3937C13.0288 34.2067 11.0114 33.5204 9.76947 31.7692C8.80968 31.7424 7.81448 31.4597 6.90014 31.0117C5.75266 30.4494 4.65755 29.5918 3.83131 28.5103C3.00227 27.4251 2.42701 26.0901 2.37983 24.594C2.33716 23.2406 2.72931 21.8264 3.64821 20.4231C3.26999 19.2388 3.07787 17.5932 3.52553 15.8878C4.03159 13.96 5.33624 12.0347 7.92149 10.6603C8.22481 9.34038 8.92349 7.63747 10.1805 6.21933C11.54 4.68562 13.5467 3.50022 16.3069 3.50968ZM60.0085 1.1179C61.0557 1.02343 61.6766 1.04438 62.7138 1.11604L62.7848 1.12099L62.8546 1.1352C64.0565 1.38094 64.6393 1.61244 65.4592 2.07502L65.6888 2.20316C66.8184 2.84449 67.6655 3.49519 68.3786 4.31291C69.0819 5.1194 69.6159 6.0451 70.1709 7.17357L70.2824 7.40204L70.3086 7.45622L70.3285 7.51308C70.8033 8.87403 71.0197 10.0185 70.9986 11.2213C70.9779 12.4035 70.7277 13.5858 70.352 15.0022L70.3457 15.0259L70.3382 15.0491C69.3439 18.1957 68.1364 19.8587 66.0197 22.6054L66.0042 22.6256L65.9875 22.6452C61.5751 27.8307 58.7876 30.475 53.6632 34.965L53.362 35.2291H51.8738L51.5749 34.9734C46.4682 30.6084 43.7393 28.0641 39.5904 23.2422C36.5864 19.7497 35.7883 17.6208 34.4469 14.0337L34.4226 13.9692L34.4073 13.9023C34.1182 12.65 33.9862 11.6413 34.0164 10.6387C34.0465 9.63892 34.2366 8.69759 34.5308 7.58951L34.5536 7.50319L34.591 7.42181C35.2001 6.09206 35.7949 5.10851 36.5496 4.27191C37.3017 3.43819 38.1691 2.79921 39.2475 2.11087L39.3002 2.07729L39.3565 2.05009C40.2691 1.60825 41.04 1.34928 41.8511 1.21719C42.5463 1.10397 43.2378 1.09021 44.0107 1.10574L44.347 1.11398L44.44 1.11666L44.5309 1.1352C46.3765 1.51189 47.8181 2.12383 49.1392 3.23671C50.3117 4.22439 51.3411 5.56821 52.4852 7.35589C53.3806 5.8418 54.2277 4.633 55.276 3.65883C56.4733 2.54619 57.8728 1.79315 59.7696 1.16734L59.8862 1.12881L60.0085 1.1179ZM23.6594 2.12487C21.1037 1.94655 18.7016 3.28328 17.8917 5.02983L17.7972 5.23295L17.9355 5.29682C16.7804 7.75918 17.9606 9.79042 19.4268 10.5081C20.1578 10.8658 20.8953 10.8727 21.4868 10.5482C21.8509 10.3485 22.2423 9.97647 22.5615 9.33359C22.2372 8.93767 22.072 8.41419 22.1589 7.86L22.1768 7.76194C22.381 6.79284 23.3016 6.17262 24.2619 6.27289L24.358 6.28546L24.4532 6.30256C25.4302 6.50327 26.1311 7.42402 25.9703 8.44898C25.8504 9.21329 25.2916 9.7775 24.6038 9.97222C24.1181 11.0878 23.4067 11.9052 22.5152 12.3943C21.2012 13.1151 19.7158 13.0016 18.4867 12.4001C16.3244 11.3418 14.7561 8.69857 15.5528 5.65672C13.8651 5.83372 12.6516 6.62528 11.7765 7.61258C11.0187 8.46746 10.5125 9.47652 10.211 10.3682C10.2927 10.3797 10.3735 10.3941 10.4527 10.4106C11.1171 10.5491 11.8561 10.8798 12.5261 11.3785C13.5394 12.1327 14.4577 13.3259 14.7033 14.9208C15.2053 15.2633 15.5258 15.8474 15.4849 16.5052C15.4222 17.5114 14.5417 18.2432 13.557 18.1828C12.5723 18.1223 11.7894 17.2885 11.852 16.2823L11.8603 16.1888C11.9175 15.6894 12.1777 15.2642 12.5489 14.9799C12.3462 14.1302 11.8317 13.4985 11.2506 13.0661C10.8046 12.7342 10.3479 12.5442 10.0159 12.475C9.84726 12.4399 9.75513 12.4452 9.73397 12.4483C9.69736 12.4536 9.87387 12.4398 10.0283 12.2355L9.82199 12.082L9.3246 12.3189C6.96333 13.4434 5.95687 14.9937 5.58255 16.4197C5.21707 17.8122 5.43487 19.1693 5.75548 20.0196C6.1404 20.4769 6.60619 20.7802 7.23104 20.849C7.97761 20.9311 9.15579 20.7026 10.9457 19.5723C11.5053 19.2189 12.1197 19.2292 12.6334 19.4322C13.1057 19.6189 13.4934 19.9618 13.793 20.3137C14.3984 21.025 14.8763 22.0466 15.1058 23.093C15.3338 24.1326 15.351 25.3581 14.8339 26.4141C14.5003 27.0953 13.9749 27.6425 13.2663 28.0064C13.0693 28.5731 12.59 29.0281 11.9598 29.1712C10.9905 29.3911 10.0192 28.793 9.79625 27.8255C9.57334 26.858 10.1863 25.9002 11.1556 25.6803L11.2463 25.6622C11.7239 25.5787 12.1961 25.6911 12.5734 25.9448C12.7344 25.808 12.8437 25.6517 12.922 25.492C13.1555 25.0151 13.1992 24.3192 13.0287 23.5417C12.8596 22.7711 12.5137 22.0798 12.1692 21.6751C12.0716 21.5604 11.9914 21.4894 11.9346 21.4468C10.006 22.6366 8.38301 23.098 6.99687 22.9455C6.22145 22.8602 5.58037 22.5902 5.05257 22.2247C4.63323 23.0565 4.48254 23.8304 4.50453 24.5281C4.53564 25.5141 4.91467 26.4367 5.52526 27.2359C6.13869 28.0389 6.96881 28.6926 7.84115 29.1201C8.72301 29.5522 9.57447 29.7182 10.2289 29.6454L10.9428 29.5659L11.2832 30.1938C11.9883 31.494 13.3908 32.1231 15.0824 32.2953C16.1308 32.4021 17.1972 32.3197 18.0808 32.1608C17.997 32.0531 17.901 31.9166 17.8224 31.7584C16.3339 29.7425 17.0661 27.2531 18.5676 25.8367C19.3521 25.0967 20.4011 24.5777 21.5831 24.5114C22.3734 24.4671 23.184 24.6275 23.9723 25.0147C24.0462 24.9877 24.1222 24.9647 24.2 24.9471L24.2886 24.9294C25.1775 24.773 26.1126 25.2724 26.3766 26.1945L26.4007 26.2882L26.4198 26.383C26.5904 27.3589 25.9182 28.2365 25.0038 28.4435C24.0598 28.6572 23.0359 28.116 22.8029 27.1026C22.7785 26.9965 22.7647 26.8913 22.7597 26.7878C22.3808 26.6446 22.025 26.5996 21.7031 26.6177C21.0836 26.6524 20.4971 26.9269 20.032 27.3657C19.0923 28.2521 18.8521 29.5403 19.5159 30.482L19.5829 30.572L19.6899 30.708L19.7326 30.8291C19.7388 30.8382 19.7489 30.8532 19.765 30.8738C19.8147 30.9372 19.8929 31.0238 20.0035 31.1318C20.2245 31.3473 20.5254 31.5996 20.8652 31.8561C21.3129 32.1939 21.776 32.5 22.1502 32.7182C24.2587 33.4585 25.7715 33.1417 26.8484 32.4951C28.2568 31.6497 29.175 30.0909 29.6264 28.7105V7.85732C28.5794 3.80941 26.0456 2.29138 23.6594 2.12487ZM62.494 3.2157C61.6102 3.1556 61.1195 3.14213 60.3234 3.20869C58.6948 3.75771 57.6213 4.36928 56.729 5.19855C55.7956 6.06589 55.0003 7.22466 53.9991 8.97225L53.9369 9.08082L53.8509 9.17208C53.5989 9.43907 53.1615 9.8226 52.5171 9.81009C51.9529 9.79913 51.5148 9.47532 51.2637 9.27838L51.1169 9.16343L51.0187 9.00583C49.7582 6.98296 48.7853 5.70576 47.7635 4.84504C46.7934 4.02789 45.7264 3.54342 44.1906 3.22023C43.3453 3.19817 42.7536 3.208 42.1953 3.29893C41.646 3.38838 41.0881 3.56365 40.3436 3.91964C39.3551 4.55352 38.6875 5.06462 38.1333 5.67897C37.5845 6.28741 37.1054 7.04399 36.5641 8.21269C36.3015 9.21402 36.1637 9.95626 36.1413 10.7015C36.1187 11.4503 36.2111 12.2527 36.4645 13.3656C37.7622 16.8356 38.4645 18.6839 41.2069 21.8724L41.5831 22.3079C45.3369 26.6347 47.9359 29.0683 52.6097 33.073C57.4525 28.8202 60.1327 26.2541 64.3472 21.3028C66.4157 18.6179 67.4283 17.1974 68.3026 14.44C68.6648 13.0716 68.8573 12.0973 68.8733 11.1844C68.8888 10.3002 68.7385 9.41972 68.3381 8.25822C67.7771 7.10265 67.3233 6.32625 66.7712 5.69318C66.2206 5.06181 65.5289 4.52373 64.4306 3.92108L64.4248 3.91799L64.4188 3.91469C63.8131 3.57235 63.4457 3.41401 62.494 3.2157ZM11.4831 27.1154C11.3271 27.1523 11.2208 27.3015 11.2411 27.4635L11.2469 27.4963C11.281 27.6442 11.4101 27.7406 11.5506 27.7443L11.4831 27.1154ZM24.3351 26.7819C24.3936 26.9793 24.5749 27.026 24.6727 27.0039C24.768 26.9823 24.9069 26.8674 24.8825 26.6733L24.8755 26.6335L24.8753 26.6333C24.8428 26.4921 24.7506 26.421 24.6621 26.3946L24.3351 26.7819ZM18.5547 15.3227C19.5045 15.0486 20.4149 15.6109 20.7477 16.4274L20.7791 16.51L20.8065 16.5938C20.9499 17.0726 20.8966 17.6023 20.6568 18.0394C21.0173 18.6421 21.4735 19.1595 21.9819 19.4244C22.3565 19.6196 22.7758 19.6895 23.2955 19.5311C23.5876 19.4421 23.9314 19.2735 24.325 18.9864C24.2795 18.5095 24.4212 18.0173 24.7352 17.6305L24.7943 17.561C25.402 16.8828 26.46 16.6995 27.251 17.2664L27.3292 17.3258L27.4042 17.389C28.1552 18.0566 28.1783 19.1713 27.5823 19.9058C27.14 20.4509 26.4189 20.7097 25.7424 20.5678C25.1334 21.0367 24.5265 21.3628 23.9195 21.5477C22.8349 21.8783 21.8374 21.7319 20.9935 21.2921C19.9753 20.7615 19.2237 19.8316 18.7063 18.9024C18.0903 18.756 17.5818 18.2837 17.3733 17.6927C17.0601 16.8043 17.4444 15.7054 18.4597 15.3528L18.5547 15.3227ZM26.4322 18.7308C26.4203 18.6842 26.395 18.6365 26.3502 18.5927L26.3216 18.5674L26.3214 18.5672C26.27 18.5262 26.2182 18.5052 26.1694 18.4978L26.4322 18.7308ZM19.2687 16.8744C19.2131 16.845 19.1272 16.8254 19.032 16.8468L18.9907 16.8585C18.8793 16.8972 18.8119 16.9773 18.7833 17.0429C18.7604 17.0955 18.7584 17.1444 18.7665 17.1832L19.3754 16.9852C19.3588 16.9465 19.3251 16.9043 19.2687 16.8744ZM13.3874 16.5211C13.434 16.6325 13.5405 16.7038 13.6487 16.7104C13.7403 16.716 13.8362 16.6754 13.9001 16.5994L13.3874 16.5211ZM24.0902 7.9902L24.0932 7.99085L24.2189 8.01389C24.19 7.97657 24.1508 7.95213 24.1138 7.9424L24.0985 7.93911L24.0983 7.9389L24.0902 7.9902ZM24.0983 7.9389C24.06 7.93302 24.0121 7.94213 23.9698 7.96815L24.0902 7.9902L24.0983 7.9389Z" fill="#3C5465"/>
</svg>
