<svg width="294" height="216" viewBox="0 0 294 216" fill="none" xmlns="http://www.w3.org/2000/svg">
<path d="M127.08 119.931V32.0902C117.717 -5.73588 78.6372 0.568476 70.0886 19.0612C47.2921 17.3801 38.3364 37.1337 36.7081 47.2206C14.8886 57.6438 16.4898 77.0612 20.0178 85.467C2.92045 108.583 27.7842 129.178 42.8463 127.496C50.6622 141.954 73.0609 139.481 82.0167 136.259C109.698 151.726 123.145 132.82 127.08 119.931Z" fill="#69D5CD"/>
<path d="M105.03 110.172C105.409 111.823 104.302 113.483 102.558 113.879C100.814 114.275 99.093 113.257 98.7146 111.606C98.3361 109.954 99.4431 108.295 101.187 107.899C102.931 107.502 104.652 108.52 105.03 110.172Z" fill="#3C5465"/>
<path d="M56.4091 71.1556C54.6811 71.0492 53.3652 69.5939 53.4701 67.9049C53.575 66.216 55.0609 64.933 56.7889 65.0394C58.517 65.1457 59.8328 66.6011 59.7279 68.29C59.6231 69.9789 58.1372 71.2619 56.4091 71.1556Z" fill="#3C5465"/>
<path d="M50.8618 113.239C51.2397 114.884 50.2014 116.524 48.5427 116.902C46.884 117.279 45.233 116.251 44.8551 114.606C44.4773 112.961 45.5156 111.321 47.1742 110.944C48.8329 110.566 50.4839 111.594 50.8618 113.239Z" fill="#3C5465"/>
<path d="M110.786 79.9374C109.634 81.3616 107.595 81.6308 106.233 80.5386C104.871 79.4464 104.7 77.4064 105.852 75.9821C107.004 74.5579 109.043 74.2887 110.405 75.3809C111.768 76.4731 111.938 78.5131 110.786 79.9374Z" fill="#3C5465"/>
<path d="M81.8892 70.0267C82.4963 71.7538 81.6913 73.6058 80.0911 74.1633C78.4908 74.7208 76.7014 73.7726 76.0943 72.0456C75.4871 70.3185 76.2922 68.4665 77.8924 67.909C79.4926 67.3515 81.282 68.2996 81.8892 70.0267Z" fill="#3C5465"/>
<path d="M103.19 34.4218C102.894 36.3188 101.067 37.6106 99.1104 37.3073C97.1539 37.0039 95.8084 35.2202 96.1052 33.3233C96.402 31.4263 98.2286 30.1344 100.185 30.4378C102.142 30.7411 103.487 32.5249 103.19 34.4218Z" fill="#3C5465"/>
<path d="M215.004 35.104C217.075 36.7339 218.136 36.8475 219.776 35.104C228.16 20.424 234.014 13.9286 248.885 9.00674C252.901 8.64335 255.216 8.71793 259.383 9.00674C263.96 9.94543 265.933 10.7558 268.927 12.4535C278.633 17.7961 282.217 22.5905 287.06 32.642C290.743 43.2329 290.134 49.579 287.06 61.2012C283.183 73.5085 278.58 79.9135 269.881 91.2376C251.79 112.565 240.415 123.395 219.299 141.955H216.435C195.394 123.913 184.272 113.505 167.284 93.6996C155.351 79.7818 152.262 71.5153 146.765 56.7696C144.472 46.8023 144.875 41.5855 147.242 32.642C152.071 22.0689 156.217 18.0125 164.899 12.4535C171.876 9.06523 176.019 8.79465 183.509 9.00674C197.707 11.9137 204.467 18.1426 215.004 35.104Z" fill="#FEAA79"/>
<path d="M282.97 154.661C283.975 154.661 285.013 154.773 285.975 155.094C286.645 155.318 288.536 156.056 289.331 158.151C289.805 159.401 289.718 160.77 289.118 161.937C288.578 162.986 287.772 163.603 287.191 163.94C286.054 164.597 284.845 164.738 283.967 164.738H153.072L182.992 205.01L183.176 206.008C183.5 207.766 183.566 209.779 182.55 211.727C181.622 213.507 180.091 214.582 179.131 215.235L178.008 216H117.818L116.8 215.419C115.151 214.477 113.432 213.122 112.625 210.883C111.895 208.853 112.226 206.844 112.462 205.567L112.514 205.324C112.652 204.761 112.901 204.23 113.247 203.762L142.131 164.738H7.133C6.032 164.738 4.95866 164.637 4.00146 164.373C3.5289 164.243 2.93381 164.033 2.34242 163.67C1.82346 163.351 0.821417 162.617 0.30172 161.247C-0.337548 159.562 0.112075 157.907 0.967054 156.795C1.67415 155.875 2.5512 155.426 3.04902 155.215C4.10081 154.771 5.22248 154.661 6.13586 154.661H282.97ZM121.608 207.237H173.699L147.605 172.114L121.608 207.237ZM67.5245 14.5787C73.5371 4.93064 86.2446 -0.777923 98.5872 0.085916C112.627 1.06863 126.245 10.4062 131.353 31.0422L131.481 31.5582V120.582L131.291 121.205C129.15 128.217 124.321 137.304 115.731 142.477C109.029 146.513 100.634 147.82 90.6135 144.761L90.4648 145.112C89.7189 144.797 88.8755 144.371 87.9771 143.869C85.9103 143.101 83.779 142.151 81.5825 141.007C76.4563 142.522 68.9694 143.624 61.5546 142.866C53.9502 142.089 45.5964 139.239 40.4539 131.964C36.4795 131.853 32.3585 130.679 28.5724 128.818C23.8209 126.482 19.2862 122.92 15.8649 118.427C12.4319 113.919 10.0499 108.374 9.8545 102.16C9.67783 96.5379 11.3016 90.6634 15.1067 84.8345C13.5405 79.9149 12.745 73.0794 14.5987 65.9955C16.6942 57.9878 22.0965 49.9904 32.8016 44.2812C34.0577 38.7985 36.9508 31.7249 42.1559 25.8341C47.7852 19.4634 56.0949 14.5394 67.5245 14.5787ZM248.486 4.64356C252.822 4.25118 255.393 4.33818 259.688 4.63586L259.982 4.6564L260.271 4.71545C265.248 5.73621 267.661 6.69783 271.057 8.61931L272.007 9.15158C276.684 11.8156 280.192 14.5185 283.145 17.9152C286.057 21.2652 288.269 25.1104 290.567 29.7979L291.029 30.7469L291.137 30.972L291.219 31.2082C293.185 36.8614 294.081 41.6153 293.994 46.6114C293.908 51.5224 292.872 56.4333 291.317 62.3167L291.291 62.4151L291.26 62.5118C287.143 75.5823 282.142 82.4899 273.377 93.8994L273.313 93.9832L273.244 94.0645C254.973 115.604 243.43 126.589 222.211 145.239L220.964 146.336H214.801L213.564 145.274C192.418 127.143 181.118 116.574 163.938 96.5444C151.499 82.0371 148.194 73.1942 142.639 58.2939L142.539 58.0261L142.475 57.748C141.278 52.5461 140.732 48.3563 140.857 44.1914C140.981 40.0386 141.768 36.1285 142.987 31.5256L143.081 31.1671L143.236 30.8291C145.758 25.3055 148.221 21.22 151.346 17.7449C154.461 14.2817 158.052 11.6275 162.518 8.76821L162.736 8.62872L162.969 8.51577C166.748 6.68041 169.94 5.60472 173.299 5.05603C176.178 4.58572 179.041 4.52854 182.241 4.59308L183.634 4.6273L184.019 4.63843L184.395 4.71545C192.038 6.28017 198.007 8.82208 203.478 13.4448C208.333 17.5474 212.596 23.1295 217.333 30.5552C221.041 24.2659 224.549 19.2448 228.889 15.1982C233.847 10.5765 239.642 7.44849 247.496 4.84894L247.98 4.68892L248.486 4.64356ZM97.97 8.8264C87.387 8.08568 77.4405 13.6383 74.0867 20.8931L73.6956 21.7369L74.2681 22.0022C69.485 32.2305 74.3719 40.6679 80.4435 43.6488C83.4702 45.1348 86.5241 45.1636 88.9734 43.8157C90.4811 42.9859 92.1021 41.4407 93.4235 38.7703C92.0806 37.1257 91.3967 34.9512 91.7568 32.6492L91.8307 32.2419C92.6761 28.2164 96.4885 25.6401 100.465 26.0566L100.863 26.1088L101.257 26.1799C105.303 27.0136 108.205 30.8382 107.539 35.0958C107.042 38.2706 104.728 40.6142 101.88 41.4231C99.8695 46.0569 96.9234 49.4523 93.2318 51.484C87.791 54.4782 81.6403 54.0068 76.5504 51.5079C67.5968 47.1121 61.1026 36.1325 64.4016 23.4971C57.4133 24.2324 52.3882 27.5204 48.7645 31.6215C45.6268 35.1725 43.5305 39.364 42.2822 43.0678C42.6206 43.1157 42.9549 43.1755 43.2828 43.2441C46.0341 43.8193 49.0943 45.193 51.8685 47.2643C56.0647 50.3973 59.8671 55.3539 60.8841 61.9787C62.963 63.4014 64.2901 65.8276 64.1205 68.5602C63.861 72.7397 60.215 75.7793 56.1373 75.5284C52.0598 75.2774 48.8179 71.8137 49.0774 67.6343L49.1118 67.2458C49.3485 65.1713 50.4259 63.4052 51.9631 62.2243C51.1239 58.6946 48.993 56.0708 46.5871 54.2745C44.7403 52.8957 42.8488 52.1068 41.4742 51.8194C40.776 51.6734 40.3945 51.6953 40.3069 51.7082C40.1552 51.7304 40.8862 51.6731 41.5258 50.8242L40.6713 50.1867L38.6117 51.1708C28.8341 55.8417 24.6665 62.2817 23.1165 68.205C21.6031 73.9889 22.5049 79.6264 23.8325 83.1582C25.4264 85.0579 27.3552 86.3178 29.9426 86.6034C33.034 86.9445 37.9127 85.9955 45.3244 81.3004C47.6416 79.8324 50.1857 79.875 52.313 80.7185C54.2686 81.494 55.874 82.9182 57.1147 84.3802C59.6217 87.3344 61.6003 91.578 62.5508 95.9249C63.4951 100.243 63.566 105.333 61.4248 109.72C60.0435 112.55 57.8679 114.823 54.9339 116.334C54.1178 118.688 52.1334 120.578 49.5235 121.173C45.51 122.086 41.4878 119.601 40.5647 115.583C39.6417 111.564 42.1798 107.586 46.1934 106.672L46.5691 106.597C48.5469 106.25 50.5022 106.717 52.0645 107.771C52.7313 107.203 53.1839 106.553 53.5078 105.89C54.4748 103.909 54.6558 101.018 53.9496 97.7887C53.2497 94.5876 51.8174 91.7159 50.3909 90.0349C49.9867 89.5586 49.6543 89.2635 49.4195 89.0867C41.4333 94.0291 34.7127 95.9456 28.973 95.3122C25.7621 94.9578 23.1074 93.8362 20.9219 92.318C19.1855 95.7733 18.5615 98.988 18.6526 101.886C18.7814 105.982 20.3509 109.814 22.8792 113.134C25.4194 116.469 28.8568 119.185 32.469 120.96C36.1206 122.755 39.6464 123.445 42.3562 123.142L45.3123 122.812L46.7221 125.42C49.6419 130.821 55.4494 133.434 62.4537 134.15C66.7952 134.593 71.2108 134.251 74.8698 133.591C74.5226 133.144 74.1253 132.577 73.7996 131.92C67.6363 123.546 70.6679 113.205 76.8856 107.322C80.134 104.248 84.4777 102.092 89.3722 101.817C92.6448 101.632 96.0012 102.299 99.2654 103.907C99.5716 103.795 99.8862 103.7 100.208 103.627L100.575 103.553C104.256 102.903 108.128 104.978 109.221 108.808L109.321 109.197L109.4 109.591C110.107 113.645 107.323 117.29 103.537 118.15C99.6278 119.038 95.3879 116.789 94.4233 112.58C94.3223 112.139 94.2652 111.702 94.2445 111.273C92.6756 110.678 91.202 110.491 89.8691 110.566C87.3041 110.71 84.8754 111.85 82.9493 113.673C79.0581 117.355 78.0635 122.706 80.8123 126.618L81.0899 126.992L81.5326 127.556L81.7097 128.059C81.7352 128.097 81.777 128.16 81.8438 128.245C82.0496 128.508 82.3733 128.868 82.8315 129.317C83.7466 130.212 84.9923 131.26 86.3997 132.325C88.2535 133.729 90.1709 135 91.7207 135.907C100.451 138.982 106.716 137.665 111.175 134.98C117.007 131.468 120.809 124.993 122.678 119.259V32.6381C118.343 15.8237 107.851 9.51802 97.97 8.8264ZM258.778 13.3575C255.118 13.1079 253.086 13.0519 249.79 13.3284C243.046 15.609 238.601 18.1493 234.906 21.594C231.041 25.1968 227.748 30.0101 223.602 37.2693L223.344 37.7203L222.988 38.0994C221.945 39.2085 220.133 40.8016 217.465 40.7496C215.129 40.7041 213.315 39.359 212.275 38.541L211.667 38.0635L211.261 37.4088C206.041 29.0061 202.012 23.7009 197.781 20.1255C193.764 16.7312 189.346 14.7188 182.987 13.3763C179.486 13.2847 177.036 13.3255 174.724 13.7032C172.45 14.0748 170.139 14.8029 167.056 16.2816C162.963 18.9146 160.199 21.0377 157.904 23.5896C155.631 26.1169 153.648 29.2597 151.406 34.1142C150.319 38.2736 149.748 41.3568 149.655 44.4524C149.562 47.5627 149.944 50.8956 150.994 55.5188C156.367 69.9326 159.275 77.6102 170.631 90.8546L172.189 92.6637C187.733 110.636 198.495 120.745 217.849 137.38C237.902 119.715 249 109.056 266.452 88.4885C275.017 77.3361 279.21 71.4355 282.831 59.9814C284.33 54.2976 285.127 50.2503 285.194 46.4582C285.258 42.7855 284.636 39.1281 282.978 34.3034C280.654 29.5033 278.775 26.2783 276.489 23.6486C274.209 21.026 271.345 18.7909 266.797 16.2876L266.773 16.2747L266.748 16.261C264.24 14.839 262.719 14.1813 258.778 13.3575ZM47.5499 112.633C46.9036 112.786 46.4636 113.406 46.5476 114.079L46.5717 114.215C46.7128 114.83 47.2474 115.23 47.8293 115.246L47.5499 112.633ZM100.768 111.248C101.01 112.068 101.761 112.262 102.166 112.17C102.56 112.081 103.136 111.603 103.035 110.797L103.006 110.632L103.005 110.631C102.87 110.044 102.489 109.749 102.122 109.639L100.768 111.248ZM76.8323 63.6482C80.7653 62.5094 84.535 64.8451 85.9132 68.2367L86.043 68.5798L86.1564 68.9281C86.7502 70.9168 86.5294 73.1172 85.5367 74.9328C87.0294 77.4366 88.9186 79.5856 91.0235 80.6859C92.5747 81.4967 94.3112 81.787 96.4631 81.1292C97.6727 80.7594 99.0963 80.0591 100.726 78.8667C100.538 76.8858 101.125 74.8411 102.424 73.2342L102.669 72.9458C105.186 70.1287 109.567 69.3671 112.842 71.7221L113.166 71.9686L113.476 72.2313C116.586 75.0042 116.682 79.6346 114.214 82.6858C112.382 84.9498 109.397 86.0249 106.595 85.4353C104.073 87.3834 101.56 88.7377 99.0471 89.506C94.5558 90.879 90.4255 90.2708 86.9309 88.444C82.7145 86.2399 79.6025 82.3774 77.4598 78.5175C74.9091 77.9093 72.8034 75.9478 71.9403 73.4926C70.6432 69.8026 72.2345 65.2378 76.4386 63.7732L76.8323 63.6482ZM109.452 77.8047C109.402 77.6113 109.298 77.4132 109.112 77.2313L108.994 77.1261L108.993 77.1252C108.78 76.9549 108.565 76.8676 108.363 76.8368L109.452 77.8047ZM79.7885 70.0936C79.5583 69.9717 79.2026 69.89 78.8085 69.979L78.6375 70.0278C78.1764 70.1884 77.8971 70.5213 77.7787 70.7936C77.6839 71.0119 77.6756 71.2151 77.7091 71.3764L80.2303 70.554C80.1618 70.3933 80.0224 70.2177 79.7885 70.0936ZM55.435 68.6261C55.6283 69.089 56.0691 69.3849 56.5173 69.4125C56.8964 69.4358 57.2936 69.2671 57.5583 68.9512L55.435 68.6261ZM99.7537 33.19L99.766 33.1927L100.287 33.2885C100.167 33.1334 100.005 33.0319 99.8517 32.9915L99.788 32.9778L99.7872 32.977L99.7537 33.19ZM99.7872 32.977C99.6286 32.9526 99.4303 32.9904 99.2551 33.0985L99.7537 33.19L99.7872 32.977Z" fill="#3C5465"/>
</svg>
