<svg width="50" height="45" viewBox="0 0 50 45" fill="none" xmlns="http://www.w3.org/2000/svg">
<path d="M34.375 6.42857H40.625C42.3535 6.42857 43.75 7.86495 43.75 9.64286V35.3571C43.75 37.135 42.3535 38.5714 40.625 38.5714H34.375C32.6465 38.5714 31.25 40.0078 31.25 41.7857C31.25 43.5636 32.6465 45 34.375 45H40.625C45.8008 45 50 40.6808 50 35.3571V9.64286C50 4.3192 45.8008 0 40.625 0H34.375C32.6465 0 31.25 1.43638 31.25 3.21429C31.25 4.99219 32.6465 6.42857 34.375 6.42857ZM33.457 24.7701C34.6777 23.5145 34.6777 21.4754 33.457 20.2199L20.957 7.36272C19.7363 6.10714 17.7539 6.10714 16.5332 7.36272C15.3125 8.6183 15.3125 10.6574 16.5332 11.9129L23.7012 19.2857H3.125C1.39648 19.2857 0 20.7221 0 22.5C0 24.2779 1.39648 25.7143 3.125 25.7143H23.7012L16.5332 33.0871C15.3125 34.3426 15.3125 36.3817 16.5332 37.6373C17.7539 38.8929 19.7363 38.8929 20.957 37.6373L33.457 24.7801V24.7701Z" fill="white"/>
</svg>
